<svg height="32" viewBox="0 0 32 32" width="32" xmlns="http://www.w3.org/2000/svg"><path d="m15.999 0c-8.835 0-15.999 7.19139467-15.999 16.0644293 0 7.096018 4.584 13.1167907 10.943 15.2411787.8.1475827 1.092-.3483753 1.092-.774056 0-.3815067-.014-1.3914947-.022-2.7317867-4.451.9708334-5.39-2.1535026-5.39-2.1535026-.727-1.855326-1.776-2.349276-1.776-2.349276-1.453-.9969367.11-.9768574.11-.9768574 1.605.113448 2.45 1.6555367 2.45 1.6555367 1.428 2.4546927 3.745 1.745894 4.657 1.3342687.145-1.0380987.559-1.7458934 1.016-2.1474794-3.553-.4056013-7.288-1.78304-7.288-7.938344 0-1.7539253.623-3.187586 1.647-4.311022-.165-.4066053-.714-2.03905063.156-4.25078397 0 0 1.344-.431704 4.4 1.64650134 1.277-.35640734 2.645-.53410867 4.006-.54113667 1.359.007028 2.728.18472933 4.006.54113667 3.054-2.07820534 4.395-1.64650134 4.395-1.64650134.873 2.21173334.324 3.84417867.159 4.25078397 1.026 1.123436 1.645 2.5570967 1.645 4.311022 0 6.1703634-3.741 7.5287267-7.305 7.9262967.574.495958 1.086 1.4758273 1.086 2.9747453 0 2.1474794-.02 3.8793174-.02 4.4063987 0 .4296967.288.9296707 1.1.772048 6.353-2.128404 10.933-8.1451607 10.933-15.2391707 0-8.87303463-7.164-16.0644293-16.001-16.0644293" fill="#bbb" transform=""/></svg>