<?xml version="1.0" encoding="UTF-8"?>
<svg width="32px" height="26px" viewBox="0 0 32 26" version="1.1" xmlns="http://www.w3.org/2000/svg" xmlns:xlink="http://www.w3.org/1999/xlink">
    <!-- Generator: Sketch 51 (57462) - http://www.bohemiancoding.com/sketch -->
    <title>twitter-original</title>
    <desc>Created with Sketch.</desc>
    <defs></defs>
    <g id="Home" stroke="none" stroke-width="1" fill="none" fill-rule="evenodd">
        <g id="Desktop" transform="translate(-950.000000, -1804.000000)" fill="#BBBBBB" fill-rule="nonzero">
            <g id="twitter-original" transform="translate(950.000000, 1804.000000)">
                <path d="M9.85600482,25.4994798 C21.6832106,25.4994798 28.150438,15.7005753 28.150438,7.20504667 C28.150438,6.92699313 28.150438,6.64893959 28.1330596,6.37336868 C29.3913796,5.46282781 30.4775137,4.33550136 31.3406058,3.0441741 C30.1676052,3.5644507 28.9232157,3.90588372 27.6489485,4.05708341 C28.9906734,3.25274867 29.9946418,1.98852491 30.4741711,0.499487719 C29.211769,1.24886596 27.8305839,1.77699084 26.3902598,2.06105624 C24.39738,-0.0579898662 21.2307163,-0.57655455 18.6660352,0.796157134 C16.1013542,2.16886882 14.7765181,5.09144945 15.4344539,7.92500672 C10.2643305,7.66598659 5.44728792,5.22407629 2.18222374,1.20703466 C0.473861407,4.14422388 1.34355548,7.90347651 4.16832043,9.79193761 C3.15209975,9.75759374 2.1587888,9.48096473 1.27110188,8.98508583 C1.27110188,9.01239466 1.27110188,9.03970349 1.27110188,9.06701231 C1.27073846,12.1241482 3.42215755,14.7591955 6.41757493,15.3703867 C5.47043705,15.6283863 4.47674885,15.6657558 3.51290852,15.479622 C4.35421689,18.1004623 6.76877765,19.8964166 9.52085101,19.9483396 C7.24179383,21.7331391 4.42900916,22.7001705 1.53425969,22.6941182 C1.02153068,22.6944043 0.509227832,22.6645614 0,22.6047439 C2.94009257,24.4932569 6.36163607,25.4955881 9.85600482,25.4920319" id="original"></path>
            </g>
        </g>
    </g>
</svg>