<?xml version="1.0" encoding="UTF-8"?>
<svg width="32px" height="32px" viewBox="0 0 32 32" version="1.1" xmlns="http://www.w3.org/2000/svg" xmlns:xlink="http://www.w3.org/1999/xlink">
    <!-- Generator: Sketch 51 (57462) - http://www.bohemiancoding.com/sketch -->
    <title>icons-steemit</title>
    <desc>Created with Sketch.</desc>
    <defs></defs>
    <g id="Home" stroke="none" stroke-width="1" fill="none" fill-rule="evenodd">
        <g id="Desktop" transform="translate(-838.000000, -1801.000000)" fill="#BBBBBB" fill-rule="nonzero">
            <g id="icons-steemit" transform="translate(838.000000, 1801.000000)">
                <path d="M27.537259,9.58376825 C26.2156439,8.26223969 24.6773706,7.29526755 23.0416011,6.67210772 C23.9948973,3.86788854 27.3747654,2.84719573 27.3747654,2.84719573 C27.3747654,2.84719573 19.4884064,-1.24631964 10.7787462,0.386788854 C7.87552607,0.848786653 5.09146804,2.63231304 3.05488082,4.98527858 C-1.36494675,10.0887427 -0.779969573,17.7707991 4.36566302,22.1544061 C5.15646552,22.8312866 6.92222994,23.8842117 6.95472867,23.9379324 C5.79560724,26.8818253 2.09075176,27.6876355 2.09075176,27.6876355 C2.09075176,27.6876355 6.98722741,30.7497139 13.5628042,31.5447799 C15.3069028,31.7596626 17.1593306,31.8133832 19.0767558,31.6092447 C22.1208037,31.3621296 25.1540187,29.7505094 27.4614286,27.4834969 C32.4554005,22.5626832 32.4987321,14.5475586 27.537259,9.58376825 Z M25.2840136,25.5280644 C23.4207529,27.3545673 20.6366949,28.5149339 18.4917786,28.6760959 C16.9751711,28.8265138 15.3502344,28.848002 13.7902953,28.6546076 C11.4937183,28.3752601 9.83628295,27.7413561 8.21134631,27.1289405 C9.03464749,26.3338745 9.85794872,25.2379727 10.1937689,24.2924888 C10.4104272,23.7337939 10.3887613,23.110634 10.1287715,22.5626832 C8.38467289,18.9741421 9.14297667,14.6764882 12.013698,11.8830131 C14.0936168,9.85237162 16.9535053,8.89614366 19.8567254,9.25070013 C21.9908088,9.50855933 23.9298998,10.443299 25.4465073,11.9582221 C29.1296969,15.6542045 28.999702,21.9072909 25.2840136,25.5280644 Z" id="Shape"></path>
            </g>
        </g>
    </g>
</svg>