<svg height="140" viewBox="0 0 140 140" width="140" xmlns="http://www.w3.org/2000/svg"><g fill="none" fill-rule="evenodd"><path d="m70 .1344c38.58568 0 69.8656 31.27992 69.8656 69.8656s-31.27992 69.8656-69.8656 69.8656-69.8656-31.27992-69.8656-69.8656 31.27992-69.8656 69.8656-69.8656z" fill="#3e4261"/><path d="m69.8177083 29.6656872c22.2760235 0 40.3343127 18.0582894 40.3343127 40.3343128s-18.0582892 40.334313-40.3343127 40.334313c-22.2760234 0-40.3343128-18.0582896-40.3343128-40.334313s18.0582894-40.3343128 40.3343128-40.3343128z" fill="#111"/><g transform="translate(56.632 8.75)"><path d="m13.6477965.04869375c7.5072324 0 13.5930751 27.40076795 13.5930751 61.20130625s-6.0858427 61.201306-13.5930751 61.201306c-7.5072599 0-13.59307497-27.4007677-13.59307497-61.201306s6.08581507-61.20130625 13.59307497-61.20130625z"/><path d="m13.6477965 1.41588125c-2.6812074 0-5.89138792 6.11330577-8.27709584 16.85469815-2.50937896 11.2982076-3.94879163 26.620548-3.94879163 42.9794206s1.43941267 31.681213 3.94879163 42.979421c2.38570792 10.741392 5.59588844 16.854698 8.27709584 16.854698 2.6811949 0 5.8913752-6.113311 8.2770858-16.854699 2.5093845-11.2982165 3.9488018-26.6205588 3.9488018-42.97942s-1.4394173-31.6812035-3.9488018-42.9794201c-2.3857106-10.7413878-5.5958909-16.85469865-8.2770858-16.85469865z" stroke="#959ac2" stroke-width="3.25"/></g><g transform="translate(16.528 36.944)"><path d="m106.690679 2.39244785c3.755892 6.49886489-16.9312499 25.45472105-46.2060381 42.33909535-29.2747885 16.8844401-56.05149747 25.3036274-59.80750331 18.8048284-3.75589193-6.498799 16.93125011-25.454721 46.20603831-42.3390953 29.2747885-16.88444019 56.0514971-25.30362748 59.8075031-18.80482845z"/><path d="m105.506964 3.07656733c-1.341785-2.32157698-8.2432585-2.04672271-18.7404116 1.25381739-11.0409304 3.47151584-25.0318313 9.87944518-39.2003116 18.05121598-14.168436 8.1717132-26.7190027 17.0717359-35.2489411 24.8878199-8.10911053 7.4304745-11.79740049 13.2625865-10.45645249 15.5828216 1.34177053 2.3215876 8.24324909 2.0467372 18.74041719-1.2538075 11.0409304-3.4715158 25.0318314-9.8794451 39.2003116-18.0512159 14.1684555-8.1717245 26.7190171-17.0717325 35.2489417-24.8877959 8.1091063-7.4304623 11.7973913-13.26256557 10.4564463-15.58285606z" stroke="#959ac2" stroke-width="3.25"/></g><g transform="translate(16.528 36.944)"><path d="m106.690679 63.5363716c-3.756006 6.498799-30.5327146-1.9203883-59.8075031-18.8048284-29.2747882-16.8843743-49.96193024-35.84023046-46.20603831-42.33909535 3.75600584-6.49879903 30.53271481 1.92038826 59.80750331 18.80482845 29.2747882 16.8843743 49.9619301 35.8402963 46.2060381 42.3390953z"/><path d="m105.50697 62.8522422-.000009.0000155c1.340957-2.3202506-2.347333-8.1523626-10.4564438-15.5828371-8.5299385-7.816084-21.0805051-16.7161067-35.2489431-24.8878211-14.1684783-8.1717696-28.1593793-14.57969894-39.2003097-18.05121478-10.4971681-3.30054472-17.39864666-3.5753951-18.74040521-1.25382809-1.34096251 2.32028344 2.34732199 8.15239297 10.45644001 15.58286627 8.5299246 7.8160634 21.0804861 16.7160714 35.2489435 24.8877971 14.1684784 8.1717696 28.1593793 14.5796989 39.2003097 18.0512147 10.4971682 3.3005447 17.3986466 3.5753951 18.7404176 1.2538075z" stroke="#959ac2" stroke-width="3.25"/></g><path d="m31.0869818 52.8822768c2.3572852 0 4.2682509 1.9118945 4.2682509 4.270332 0 2.3584378-1.9109657 4.2703323-4.2682509 4.2703323-2.3572855 0-4.268251-1.9118945-4.268251-4.2703323 0-2.3584375 1.9109655-4.270332 4.268251-4.270332zm68.3364636-14.7239648c2.3584376 0 4.2703326 1.9118855 4.2703326 4.270332 0 2.3584378-1.911895 4.2703323-4.2703326 4.2703323-2.3584466 0-4.270332-1.9118945-4.270332-4.2703323 0-2.3584465 1.9118854-4.270332 4.270332-4.270332zm-37.7802065 67.414581c2.3584375 0 4.270332 1.910957 4.270332 4.268251 0 2.357286-1.9118945 4.268251-4.270332 4.268251-2.3584376 0-4.2703323-1.910965-4.2703323-4.268251 0-2.357294 1.9118947-4.268251 4.2703323-4.268251zm8.3583905-42.8457272c4.0175664 0 7.2744484 3.2568819 7.2744484 7.2744636 0 4.0175664-3.256882 7.2744484-7.2744484 7.2744484-4.0175666 0-7.2744636-3.256882-7.2744636-7.2744484 0-4.0175817 3.256897-7.2744636 7.2744636-7.2744636z" fill="#fff"/></g></svg>