<svg height="141" viewBox="0 0 104 141" width="104" xmlns="http://www.w3.org/2000/svg"><path d="m66.583056 141c-10.0315531 0-17.3380514-2.422864-21.9283137-7.268592-4.5858529-4.843503-6.8809841-10.067455-6.8809841-15.665183 0-2.046864.3990574-3.7689 1.1993769-5.168332.7808313-1.380796 1.9145404-2.524849 3.2828534-3.312804 1.3867795-.807622 3.0932459-1.21032 5.1216039-1.21032s3.7326197.402698 5.1216039 1.21032c1.3867796.807621 2.4803291 1.913373 3.2806486 3.312804.8003195 1.399432 1.1993769 3.121468 1.1993769 5.168332 0 2.47626-.58646 4.494201-1.7593801 6.056047-1.1751247 1.561846-2.5619043 2.583053-4.1625433 3.070296 1.3889843 1.935621 3.5760833 3.308355 6.5635019 4.115976 2.9874186.863243 5.9748371 1.292639 8.9622557 1.292639 4.1603386 0 7.9216199-1.130224 11.2838437-3.390674 3.3600192-2.262675 5.842553-5.599953 7.443192-10.014059 1.600639-4.414107 2.4009585-9.422249 2.4009585-15.022201 0-6.082746-.8818947-11.2800005-2.6412748-15.5850892-1.7086712-4.3607101-4.2419139-7.5911953-7.6041378-9.6914557-3.258428-2.0692496-7.0326583-3.1610772-10.8825816-3.1481656-2.5619043 0-5.7609777 1.0768284-9.6038342 3.2304852l-7.0419298 3.5530887v-3.5530887l31.690889-42.63929h-43.8544228v44.2523077c0 3.6621065.8003195 6.6767811 2.4009586 9.0462485 1.600639 2.3694675 4.0545112 3.5530888 7.3638214 3.5530888 2.5574949 0 5.0135718-.8610178 7.3616167-2.5852781 2.3631183-1.7390348 4.4188109-3.867638 6.0806645-6.2963314.2138595-.4872426.4806327-.8365443.8003195-1.052355.2875605-.2562199.6570399-.3991985 1.0406359-.4026982.58646 0 1.2787474.2959053 2.0812716.8899408.7474059.8587929 1.1200064 1.8555266 1.1200064 2.9857515-.0918453.7611844-.2258085 1.516589-.4012621 2.2626745-1.8122938 4.091503-4.3212844 7.2129705-7.5225625 9.3666273-3.1165814 2.1274619-6.7980875 3.2536249-10.56069 3.2304849-9.4980068 0-16.0615087-1.8844494-19.688301-5.651124-3.6267923-3.7711243-5.4412908-8.8860592-5.4412908-15.3448047v-44.2545326h-22.4089464v-8.2386272h22.4089464v-18.73325443l-5.1216039-5.17278106v-4.19607101h14.8841791l5.6000319 2.9056568v25.1964497l57.9404871-.1601893 5.7631824 5.8135384-35.5315407 35.855716c2.1510621-.8651907 4.4156198-1.4093261 6.722243-1.6152426 3.8406517 0 8.1619362 1.2392426 12.9638533 3.715503 4.8548307 2.4228639 8.5896551 5.7623668 11.2022684 10.0118343 2.614818 4.2005207 4.294828 8.2386272 5.042233 12.1143195.80032 3.8779172 1.201582 7.3219882 1.201582 10.3366632 0 6.892591-1.441898 13.29794-4.3212844 19.222721-2.8815912 5.920332-7.2557893 10.334438-13.124799 13.24232-5.8690098 2.907882-12.2186522 4.36071-19.0467226 4.36071z" fill="#4791ff" transform=""/></svg>