<?xml version="1.0" encoding="UTF-8"?>
<svg width="179px" height="40px" viewBox="0 0 179 40" version="1.1" xmlns="http://www.w3.org/2000/svg" xmlns:xlink="http://www.w3.org/1999/xlink">
    <!-- Generator: Sketch 50.2 (55047) - http://www.bohemiancoding.com/sketch -->
    <title>Group 3</title>
    <desc>Created with Sketch.</desc>
    <defs>
        <linearGradient x1="50.2058201%" y1="-78.5779006%" x2="50.2058201%" y2="161.748066%" id="linearGradient-1">
            <stop stop-color="#00D7E0" offset="23.51%"></stop>
            <stop stop-color="#0088A2" offset="93.24%"></stop>
        </linearGradient>
        <linearGradient x1="49.8427746%" y1="-74.8526882%" x2="49.8427746%" y2="159.012903%" id="linearGradient-2">
            <stop stop-color="#00D7E0" offset="23.51%"></stop>
            <stop stop-color="#0088A2" offset="93.24%"></stop>
        </linearGradient>
        <linearGradient x1="50.5190184%" y1="-76.2097826%" x2="50.5190184%" y2="160.197826%" id="linearGradient-3">
            <stop stop-color="#00D7E0" offset="23.51%"></stop>
            <stop stop-color="#0088A2" offset="93.24%"></stop>
        </linearGradient>
        <linearGradient x1="50.1527778%" y1="-42.0200873%" x2="50.1527778%" y2="147.931878%" id="linearGradient-4">
            <stop stop-color="#00D7E0" offset="23.51%"></stop>
            <stop stop-color="#0088A2" offset="93.24%"></stop>
        </linearGradient>
        <linearGradient x1="49.2842424%" y1="-76.7532609%" x2="49.2842424%" y2="159.654348%" id="linearGradient-5">
            <stop stop-color="#00D7E0" offset="23.51%"></stop>
            <stop stop-color="#0088A2" offset="93.24%"></stop>
        </linearGradient>
        <linearGradient x1="50.5460674%" y1="-75.6261791%" x2="50.5460674%" y2="160.72743%" id="linearGradient-6">
            <stop stop-color="#00D7E0" offset="23.51%"></stop>
            <stop stop-color="#0088A2" offset="93.24%"></stop>
        </linearGradient>
        <linearGradient x1="50.2393064%" y1="-74.8526882%" x2="50.2393064%" y2="159.012903%" id="linearGradient-7">
            <stop stop-color="#00D7E0" offset="23.51%"></stop>
            <stop stop-color="#0088A2" offset="93.24%"></stop>
        </linearGradient>
        <linearGradient x1="50.4293718%" y1="-74.8526882%" x2="50.4293718%" y2="159.012903%" id="linearGradient-8">
            <stop stop-color="#00D7E0" offset="23.51%"></stop>
            <stop stop-color="#0088A2" offset="93.24%"></stop>
        </linearGradient>
        <linearGradient x1="250.982143%" y1="-120.312732%" x2="-255.511364%" y2="298.785411%" id="linearGradient-9">
            <stop stop-color="#00D7E0" offset="23.51%"></stop>
            <stop stop-color="#0088A2" offset="93.24%"></stop>
        </linearGradient>
        <linearGradient x1="126.41833%" y1="-65.8971429%" x2="-7.83304647%" y2="139.297662%" id="linearGradient-10">
            <stop stop-color="#00D7E0" offset="23.51%"></stop>
            <stop stop-color="#0088A2" offset="93.24%"></stop>
        </linearGradient>
        <linearGradient x1="134.874096%" y1="-79.7174026%" x2="41.2606713%" y2="63.3649351%" id="linearGradient-11">
            <stop stop-color="#00D7E0" offset="0%"></stop>
            <stop stop-color="#0088A2" offset="100%"></stop>
        </linearGradient>
        <linearGradient x1="113.319431%" y1="27.7752223%" x2="-21.2986778%" y2="93.0780896%" id="linearGradient-12">
            <stop stop-color="#00D7E0" offset="0%"></stop>
            <stop stop-color="#0088A2" offset="99.9977421%"></stop>
        </linearGradient>
    </defs>
    <g id="Home" stroke="none" stroke-width="1" fill="none" fill-rule="evenodd">
        <g id="Desktop" transform="translate(-43.000000, -23.000000)" fill-rule="nonzero">
            <g id="Group-3" transform="translate(43.000000, 23.000000)">
                <g id="Group" transform="translate(53.000000, 4.000000)" fill="#FFFFFF">
                    <polygon id="Shape" points="2.18352273 3.82758621 2.18352273 9.79310345 11.4545455 9.79310345 11.4545455 11.5517241 2.21931818 11.5517241 2.21931818 19.6551724 0 19.6551724 0 2.06896552 12.0988636 2.06896552 12.0988636 3.82758621"></polygon>
                    <path d="M15.6068182,3.82758621 C14.6045455,3.82758621 13.9960227,3.55172414 13.9960227,2.55172414 C13.9960227,1.51724138 14.6403409,1.31034483 15.6068182,1.31034483 C16.5375,1.31034483 17.1818182,1.51724138 17.1818182,2.55172414 C17.1818182,3.55172414 16.5732955,3.82758621 15.6068182,3.82758621 Z M14.5329545,19.6551724 L14.5329545,5.5862069 L16.6448864,5.5862069 L16.6448864,19.6551724 L14.5329545,19.6551724 Z" id="Shape"></path>
                    <path d="M21.7278409,11.9310345 L21.7278409,19.6551724 L19.5801136,19.6551724 L19.5801136,5.5862069 L20.5465909,5.5862069 L21.1909091,8 C21.7636364,6.5862069 23.3028409,5.31034483 26.7392045,5.34482759 L26.7392045,7.20689655 C22.5511364,7.03448276 21.7278409,8.86206897 21.7278409,11.9310345 Z" id="Shape"></path>
                    <path d="M34.65,19.8275862 C29.8176136,19.8275862 27.6698864,18 27.7414773,14.4137931 L29.8176136,14.4137931 C29.7818182,16.7931034 31.2136364,18.137931 34.6142045,18.137931 C37.7284091,18.137931 38.7664773,17 38.7664773,15.8965517 C38.9096591,12.2413793 28.0636364,14.4482759 27.9920455,9.44827586 C27.9204545,7.06896552 29.7460227,5.37931034 34.2204545,5.37931034 C38.8380682,5.37931034 40.4846591,7.48275862 40.4846591,10.5862069 L38.4801136,10.5862069 C38.4085227,8.37931034 37.2988636,7.03448276 34.1488636,7.03448276 C31.0704545,7.03448276 30.0681818,8.06896552 30.1397727,9.34482759 C30.2113636,12.5517241 40.8784091,10.6551724 40.8784091,15.7931034 C40.9142045,17.8275862 39.1602273,19.8275862 34.65,19.8275862 Z" id="Shape"></path>
                    <path d="M46.06875,7.27586207 L46.06875,15.5172414 C46.06875,17.2413793 46.8204545,18.0344828 49.6125,18.0344828 C49.9346591,18.0344828 50.2568182,18.0344828 50.6147727,18 L50.6147727,19.6896552 C50.1494318,19.7241379 49.7198864,19.7586207 49.3261364,19.7586207 C45.5318182,19.7586207 43.8852273,18.5517241 43.8852273,15.4827586 L43.8852273,7.24137931 L41.8806818,7.24137931 L41.8806818,5.96551724 L43.8852273,5.48275862 L43.8852273,2.03448276 L45.9613636,2.03448276 L45.9613636,5.55172414 L50.5789773,5.55172414 L50.5789773,7.24137931 L46.06875,7.24137931 L46.06875,7.27586207 Z" id="Shape"></path>
                    <path d="M60.2079545,19.6551724 L52.9414773,19.6551724 L52.9414773,2.06896552 L60.0647727,2.06896552 C65.3625,2.06896552 67.3670455,3.93103448 67.3670455,6.5862069 C67.3670455,8.10344828 66.7585227,9.75862069 65.1477273,10.2068966 C66.8659091,10.7586207 67.9397727,12.5862069 67.9397727,14.3103448 C67.9397727,17.137931 66.1142045,19.6551724 60.2079545,19.6551724 Z M60.1363636,5.62068966 L57.5232955,5.62068966 L57.5232955,9.03448276 L60.0647727,9.03448276 C62.3914773,9.03448276 62.8210227,8.27586207 62.8210227,7.31034483 C62.8210227,6.31034483 62.4988636,5.62068966 60.1363636,5.62068966 Z M60.3869318,12.2413793 L57.5590909,12.2413793 L57.5590909,16.1034483 L60.3153409,16.1034483 C62.7852273,16.1034483 63.2505682,15.2068966 63.2505682,14.137931 C63.2147727,13.0344828 62.8568182,12.2413793 60.3869318,12.2413793 Z" id="Shape"></path>
                    <polygon id="Shape" points="70.6960227 19.6551724 70.6960227 0.206896552 75.1346591 0.206896552 75.1346591 19.6551724"></polygon>
                    <path d="M84.9784091,19.8965517 C79.1795455,19.8965517 77.7119318,16.2413793 77.7119318,12.6206897 C77.7119318,8.96551724 79.2511364,5.37931034 85.0142045,5.37931034 C90.7414773,5.37931034 92.3164773,8.96551724 92.3164773,12.6206897 C92.3164773,16.3448276 90.7414773,19.8965517 84.9784091,19.8965517 Z M85.0142045,8.96551724 C82.7232955,8.96551724 82.0073864,10.3793103 82.0073864,12.6206897 C82.0073864,14.862069 82.7590909,16.3103448 84.9784091,16.3103448 C87.3051136,16.3103448 88.0210227,14.8965517 88.0210227,12.6206897 C88.0210227,10.4137931 87.3767045,8.96551724 85.0142045,8.96551724 Z" id="Shape"></path>
                    <path d="M108.567614,13.8965517 C108.567614,17.6206897 106.419886,19.9310345 101.730682,19.9310345 C95.7528409,19.9310345 94.2136364,16.3448276 94.2136364,12.6551724 C94.2136364,8.96551724 95.7886364,5.37931034 101.623295,5.37931034 C106.3125,5.37931034 108.531818,7.72413793 108.531818,11.4137931 L104.057386,11.4137931 C103.878409,9.5862069 103.198295,8.93103448 101.551705,8.93103448 C99.2607955,8.93103448 98.6522727,10.2413793 98.6522727,12.5862069 C98.6522727,14.9310345 99.225,16.3103448 101.551705,16.3103448 C103.269886,16.3103448 103.878409,15.5172414 104.057386,13.862069 L108.567614,13.862069 L108.567614,13.8965517 Z" id="Shape"></path>
                    <polygon id="Shape" points="119.807386 19.6551724 115.583523 13.7241379 115.583523 19.6551724 111.144886 19.6551724 111.144886 0.206896552 115.583523 0.206896552 115.583523 10.9655172 119.485227 5.62068966 125.355682 5.62068966 119.091477 12.2068966 125.677841 19.6206897 119.807386 19.6206897"></polygon>
                </g>
                <g id="Group" transform="translate(53.000000, 28.000000)">
                    <polygon id="Shape" fill="url(#linearGradient-1)" points="4.10328638 7.76666667 3.10422535 7.76666667 0.285446009 1.73333333 1.35586854 1.73333333 3.60375587 7 5.95868545 1.73333333 7.02910798 1.73333333"></polygon>
                    <path d="M14.2723005,7.83333333 C11.6319249,7.83333333 11.0253521,6.33333333 11.0253521,4.7 C11.0253521,3.13333333 11.6676056,1.63333333 14.2366197,1.63333333 C16.484507,1.63333333 17.1624413,2.96666667 17.1624413,4.63333333 C17.1624413,4.8 17.1624413,4.93333333 17.1624413,5.06666667 L12.0244131,5.06666667 C12.0957746,6.26666667 12.6666667,7.1 14.2366197,7.1 C15.5924883,7.1 16.0920188,6.46666667 16.199061,5.83333333 L17.1981221,5.83333333 C17.0910798,6.9 16.341784,7.83333333 14.2723005,7.83333333 Z M14.1652582,2.33333333 C12.5239437,2.33333333 12.0600939,3.3 12.0244131,4.36666667 L16.199061,4.36666667 C16.199061,3.23333333 15.628169,2.33333333 14.1652582,2.33333333 Z" id="Shape" fill="url(#linearGradient-2)"></path>
                    <path d="M26.9746479,7.76666667 L26.9746479,4.46666667 C26.9746479,3.16666667 26.7248826,2.4 25.0478873,2.4 C23.4065728,2.4 23.0140845,3.13333333 23.0140845,4.46666667 L23.0140845,7.76666667 L22.0507042,7.76666667 L22.0507042,1.73333333 L22.4788732,1.73333333 L22.7643192,2.83333333 C23.0140845,2.2 23.7276995,1.66666667 25.2619718,1.66666667 C27.4741784,1.66666667 27.8666667,2.8 27.8666667,4.56666667 L27.8666667,7.8 L26.9746479,7.8 L26.9746479,7.76666667 Z" id="Shape" fill="url(#linearGradient-3)"></path>
                    <path d="M34.2178404,2.43333333 L34.2178404,5.96666667 C34.2178404,6.7 34.5389671,7.06666667 35.7877934,7.06666667 C35.9305164,7.06666667 36.0732394,7.06666667 36.2159624,7.06666667 L36.2159624,7.8 C36.0018779,7.8 35.8234742,7.83333333 35.6450704,7.83333333 C33.9680751,7.83333333 33.2544601,7.3 33.2544601,6 L33.2544601,2.46666667 L32.3624413,2.46666667 L32.3624413,1.9 L33.2544601,1.7 L33.2544601,0.2 L34.1821596,0.2 L34.1821596,1.7 L36.2159624,1.7 L36.2159624,2.43333333 L34.2178404,2.43333333 Z" id="Shape" fill="url(#linearGradient-4)"></path>
                    <path d="M46.170892,7.76666667 L45.9924883,6.66666667 C45.742723,7.26666667 45.029108,7.83333333 43.4948357,7.83333333 C41.2826291,7.83333333 40.8901408,6.7 40.8901408,4.96666667 L40.8901408,1.7 L41.8178404,1.7 L41.8178404,5.03333333 C41.8178404,6.33333333 42.1032864,7.06666667 43.7802817,7.06666667 C45.457277,7.06666667 45.8140845,6.3 45.8140845,4.96666667 L45.8140845,1.7 L46.7774648,1.7 L46.7774648,7.73333333 L46.170892,7.73333333 L46.170892,7.76666667 Z" id="Shape" fill="url(#linearGradient-5)"></path>
                    <path d="M52.8075117,4.43333333 L52.8075117,7.76666667 L51.8441315,7.76666667 L51.8441315,1.73333333 L52.2723005,1.73333333 L52.5577465,2.76666667 C52.8075117,2.16666667 53.485446,1.6 55.0197183,1.63333333 L55.0197183,2.43333333 C53.1643192,2.33333333 52.8075117,3.13333333 52.8075117,4.43333333 Z" id="Shape" fill="url(#linearGradient-6)"></path>
                    <path d="M62.3699531,7.83333333 C59.7295775,7.83333333 59.1230047,6.33333333 59.1230047,4.7 C59.1230047,3.13333333 59.7652582,1.63333333 62.3342723,1.63333333 C64.5821596,1.63333333 65.2600939,2.96666667 65.2600939,4.63333333 C65.2600939,4.8 65.2600939,4.93333333 65.2600939,5.06666667 L60.1220657,5.06666667 C60.1934272,6.26666667 60.7643192,7.1 62.3342723,7.1 C63.6901408,7.1 64.1896714,6.46666667 64.2967136,5.83333333 L65.2957746,5.83333333 C65.1887324,6.9 64.4394366,7.83333333 62.3699531,7.83333333 Z M62.2985915,2.33333333 C60.657277,2.33333333 60.1934272,3.3 60.1577465,4.36666667 L64.3323944,4.36666667 C64.3323944,3.23333333 63.7615023,2.33333333 62.2985915,2.33333333 Z" id="Shape" fill="url(#linearGradient-7)"></path>
                    <path d="M72.9314554,7.83333333 C70.7906103,7.83333333 69.82723,7.03333333 69.8629108,5.5 L70.7906103,5.5 C70.7906103,6.53333333 71.3971831,7.1 72.9314554,7.1 C74.3230047,7.1 74.7511737,6.6 74.7868545,6.13333333 C74.858216,4.56666667 70.0413146,5.5 70.0056338,3.36666667 C69.9699531,2.33333333 70.7906103,1.63333333 72.7530516,1.63333333 C74.7868545,1.63333333 75.5361502,2.53333333 75.5361502,3.86666667 L74.6441315,3.86666667 C74.6084507,2.93333333 74.1089202,2.33333333 72.7173709,2.33333333 C71.3615023,2.33333333 70.8976526,2.76666667 70.9333333,3.33333333 C70.9690141,4.7 75.6788732,3.9 75.6788732,6.1 C75.714554,6.96666667 74.9295775,7.83333333 72.9314554,7.83333333 Z" id="Shape" fill="url(#linearGradient-8)"></path>
                </g>
                <g id="Group">
                    <polygon id="Shape" fill="url(#linearGradient-9)" points="41 20.5119363 37.1590909 25 34 20.5119363 37.1590909 16"></polygon>
                    <polygon id="Shape" fill="url(#linearGradient-10)" points="7.36574871 4.60519481 27 0 15.4285714 18 0 18"></polygon>
                    <polygon id="Shape" fill="url(#linearGradient-11)" points="7.36574871 35.4181818 0 22 15.4285714 22 27 40"></polygon>
                    <polygon id="Shape" fill="url(#linearGradient-12)" points="31.8155941 0 38 6.93538826 36.424505 9.0391227 36.424505 9.0391227 29.4641089 18.3556609 28.5940594 19.511559 29.4641089 20.6443391 36.424505 29.9608773 36.424505 29.9608773 38 32.0877297 31.8155941 39 19 19.511559"></polygon>
                </g>
            </g>
        </g>
    </g>
</svg>