<?xml version="1.0" standalone="no"?>
<!DOCTYPE svg PUBLIC "-//W3C//DTD SVG 20010904//EN"
 "http://www.w3.org/TR/2001/REC-SVG-20010904/DTD/svg10.dtd">
<svg version="1.0" xmlns="http://www.w3.org/2000/svg"
 width="260.000000pt" height="260.000000pt" viewBox="0 0 260.000000 260.000000"
 preserveAspectRatio="xMidYMid meet">
<metadata>
Created by potrace 1.11, written by Peter Selinger 2001-2013
</metadata>
<g transform="translate(0.000000,260.000000) scale(0.100000,-0.100000)"
fill="#000000" stroke="none">
<path d="M0 1300 l0 -1300 1300 0 1300 0 0 1300 0 1300 -1300 0 -1300 0 0
-1300z m1578 872 c-1 -5 -115 -183 -252 -395 l-249 -387 -334 0 c-183 0 -333
3 -333 6 0 3 71 135 157 294 l157 287 421 101 c474 113 438 105 433 94z m366
-157 c71 -80 121 -144 117 -150 -93 -121 -401 -536 -401 -541 0 -4 90 -128
201 -276 111 -147 199 -274 196 -281 -5 -13 -259 -299 -262 -295 -73 104 -556
850 -553 857 1 5 127 198 278 429 214 327 278 418 287 409 7 -7 68 -75 137
-152z m175 -640 l82 -95 -82 -95 c-45 -52 -85 -95 -88 -95 -9 0 -131 177 -131
190 0 13 122 190 131 190 3 0 43 -43 88 -95z m-792 -552 c138 -214 249 -389
248 -391 -2 -2 -795 181 -835 193 -12 4 -306 522 -328 577 -2 4 147 8 331 8
l335 0 249 -387z"/>
</g>
</svg>
